<?xml version="1.0" encoding="utf-8"?>
<!-- Generator: Adobe Illustrator 17.0.0, SVG Export Plug-In . SVG Version: 6.00 Build 0)  -->
<!DOCTYPE svg PUBLIC "-//W3C//DTD SVG 1.1//EN" "http://www.w3.org/Graphics/SVG/1.1/DTD/svg11.dtd">
<svg version="1.1" xmlns="http://www.w3.org/2000/svg" xmlns:xlink="http://www.w3.org/1999/xlink" x="0px" y="0px" width="1024px"
	 height="1024px" viewBox="0 0 1024 1024" enable-background="new 0 0 1024 1024" xml:space="preserve">
<g id="LetterPress_Invert" display="none">
	<g display="inline">
		<path fill="#111111" d="M816.678,448c-0.729,3-2.756,5.696-6.344,5.696c-5.253,0-5.981-4.808-5.981-7.876
			c0-5.252,2.288-12.449,8.632-12.449c3.536,0,5.2,1.629,5.097,5.629h10.816c-0.208-11-7.593-14.868-15.861-14.868
			c-12.636,0-20.124,9.833-20.124,21.845c0,9.933,5.2,16.934,15.964,16.934c15.445,0,18.357-10.911,19.033-14.911H816.678z"/>
		<circle fill="#111111" cx="211.075" cy="619.869" r="12.266"/>
		<path fill="#111111" d="M835.307,654.832L835.357,897h130.674c0,0,0.023-587.601,0.023-587.839
			c0-43.305-35.103-78.43-78.405-78.43c-0.294,0-96.432,0.025-129.466,0.037C750.446,280.701,701,321.299,622,342.085v174.785
			c35,28.739,54.761,63.941,54.761,101.981c0,44.746-27.956,85.559-74.022,116.545c2.027,25.881,24.893,48.203,57.992,60.119
			l-4.647,6.697c-6.02,8.629-6.031,19.012-0.041,23.186c1.686,1.18,3.683,1.734,5.804,1.734c5.386,0,11.626-3.611,15.943-9.807
			l10.274-14.801c4.231,0.69,8.937,1.207,12.937,1.578v17.139c0,10.52,6.199,19.053,13.502,19.053
			c7.299,0,13.498-8.533,13.498-19.053V804.35c4-0.299,8.672-0.785,13.004-1.412l9.906,14.387c4.32,6.195,10.495,9.807,15.884,9.807
			c2.119,0,4.078-0.555,5.766-1.734c5.983-4.174,5.948-14.557-0.065-23.186l-4.078-5.846c10.949-3.717,20.81-8.57,29.278-14.301
			l0.01-127.283c0-9.488,8.42-17.156,18.801-17.156C826.896,637.625,835.307,645.344,835.307,654.832z M960,869v22h-88v-22H960z
			 M718.092,780.127c-34.237,0-61.993-23.398-61.993-52.266c0-9.994,3.384-19.295,9.153-27.236
			c0.378,17.24,16.8,31.115,37.039,31.115c20.472,0,37.069-14.199,37.069-31.721c0-9.529-4.934-18.059-12.711-23.873
			c30.175,3.522,53.435,25.297,53.435,51.715C780.084,756.729,752.328,780.127,718.092,780.127z M802.207,567.35
			c-10.926,26.473-36.287,45.031-65.843,45.031c-39.542,0-71.595-33.197-71.595-74.151c0-26.8,13.783-50.212,34.358-63.234
			c-9.149-18.322-14.348-39.098-14.348-61.145c0-73.623,57.633-133.314,128.719-133.314c71.095,0,128.722,59.691,128.722,133.314
			c0,66.421-46.9,121.479-108.271,131.63c0.051,0.631,0.092,1.267,0.092,1.912c0,12.443-9.738,22.531-21.754,22.531
			C808.646,569.924,805.221,568.986,802.207,567.35z"/>
		<path fill="#111111" d="M766.732,856.305c-6.656,0-13.25-1.592-19.38-4.549c-6.754,9.523-16.686,15.752-28.131,17.197l0.232,0.047
			h78.227l0.003-27.979c-2.36,3.043-5.163,5.9-8.478,8.211C782.66,853.793,774.892,856.305,766.732,856.305z"/>
		<circle fill="#111111" cx="186.701" cy="643.312" r="12.266"/>
		<circle fill="#111111" cx="186.777" cy="599.064" r="12.266"/>
		<path fill="#111111" d="M400,884h123V773.371c-37,11.85-79,19.131-123,20.606V884z M427,855h88v21h-88V855z"/>
		<path fill="#111111" d="M841.563,462.637c12.429,0,16.276-9.621,16.276-16.537c0-8.164-5.199-11.804-13.104-11.804
			c-11.025,0-16.641,7.072-16.641,15.705C828.096,459.048,834.127,462.637,841.563,462.637z M843.956,441.784
			c2.756,0,3.588,1.82,3.588,5.044c0,2.34-1.456,8.32-5.513,8.32c-2.912,0-3.64-2.185-3.64-4.368
			C838.392,447.972,839.848,441.784,843.956,441.784z"/>
		<path fill="#111111" d="M871.416,462l6.969-16h0.104l0.521,16h10.712l13.143-25h10.215c0.053-2,0.729-4.409,4.057-4.409
			c2.704,0,3.12,1.779,3.12,2.611c-0.052,1.976-1.664,2.571-4.94,3.923c-4.732,1.976-6.188,4.875-6.864,9.875h9.517
			c0.052-4,3.744-4.203,7.28-6.179c2.496-1.404,5.824-3.006,5.824-9.506c0-7.54-6.501-9.353-12.896-9.353
			c-8.434,0-13.645,4.039-15.233,11.039h-10.049l-6.656,15h-0.104l-0.624-15h-9.828l-6.604,15h-0.104l-0.78-15h-10.141l2.704,27
			H871.416z"/>
		<polygon fill="#111111" points="905.278,462 915.938,462 918.07,452 907.41,452 		"/>
		<path fill="#111111" d="M713.174,425H700v37h13.174c12.376,0,17.836-6.955,17.836-19.384C731.01,430.655,724.614,425,713.174,425z
			 M713.59,458H705v-29h8.693c9.101,0,12.377,5.452,12.377,14.292C726.07,456.969,716.97,458,713.59,458z"/>
		<path fill="#111111" d="M764,431.071V435h-4v4h4v23h5v-23h5v-4h-5v-3.669c0-2.34,1.31-3.016,3.441-3.016
			c0.781,0,1.559,0.104,2.559,0.364v-3.848c-1-0.26-2.379-0.416-3.211-0.416C766.951,424.415,764,426.703,764,431.071z"/>
		<path fill="#111111" d="M758.025,458.685c-1.404,0-1.025-0.937-1.025-3.017v-13.832c0-6.292-5.393-7.608-10.229-7.608
			c-5.98,0-11.271,2.772-11.53,8.772h4.42c0.208-4,2.96-4.872,6.704-4.872c2.809,0,5.977,0.848,5.977,4.696
			c0,3.328-4.167,3.016-9.055,3.952c-4.576,0.884-9.115,2.184-9.115,8.268c0,5.356,3.974,7.541,8.862,7.541
			c3.744,0,6.96-1.3,9.405-4.16c0,2.912,1.337,4.16,3.625,4.16c1.404,0,2.936-0.26,2.936-0.728v-3.432
			C759,458.632,758.391,458.685,758.025,458.685z M752,452.6c0,2.444-2.242,6.085-8.066,6.085c-2.705,0-5.053-1.04-5.053-3.952
			c0-3.276,2.348-4.316,5.26-4.836c2.965-0.52,6.859-0.572,7.859-1.82V452.6z"/>
		<path fill="#111111" d="M785,427h-4v8h-5v4h5v17.084c0,4.94,1.342,5.916,5.918,5.916H790v-4h-1.731
			c-2.756,0-3.269-0.304-3.269-2.332V439h5v-4h-5V427z"/>
		<circle fill="#111111" cx="577.232" cy="599.157" r="12.265"/>
		<path fill="#111111" d="M636.798,618.85c0-70.973-81.581-130.512-191.653-146.921l-40.764-40.761
			c-11.346-11.346-29.913-11.346-41.259,0l-40.783,40.782c-110.002,16.442-191.507,75.959-191.507,146.9
			c0,83.629,113.266,151.424,252.982,151.424C523.532,770.273,636.798,702.479,636.798,618.85z M383.814,759.152
			c-129.144,0-233.837-60.812-233.837-135.836c0-64.09,76.428-117.778,179.212-132.072l41.669-41.67
			c7.092-7.089,18.694-7.089,25.786,0l41.652,41.652c102.856,14.262,179.355,67.969,179.355,132.09
			C617.651,698.34,512.96,759.152,383.814,759.152z"/>
		<path fill="#111111" d="M478.182,359.205c12.133,0,21.958-13.223,21.958-29.529c0-16.305-9.825-29.528-21.958-29.528
			c-12.122,0-21.95,13.223-21.95,29.528C456.231,345.982,466.06,359.205,478.182,359.205z"/>
		<path fill="#111111" d="M313.175,358.599c12.131,0,21.956-13.223,21.956-29.529c0-16.305-9.825-29.527-21.956-29.527
			c-12.123,0-21.952,13.223-21.952,29.527C291.223,345.376,301.052,358.599,313.175,358.599z"/>
		<path fill="#111111" d="M254,862h111v-68.102c-39-1.488-77-7.703-111-17.736V862z M269,835h88v21h-88V835z"/>
		<path fill="#111111" d="M52.36,217c0,41,56.64,76.188,137.64,89.813v180.713c34-18.155,75.355-31.616,121.039-38.625
			l47.037-47.146c14.184-14.184,37.332-14.184,51.517,0l47.33,47.125C502.872,455.914,544,469.475,579,487.775V306.799
			C659,293.163,715.66,258,715.66,217H550.951c-5.94-55-45.954-98.294-94.475-98.294c-2.599,0-5.164,0.158-7.714,0.4
			c17.428,20.406,28.227,48.692,28.227,79.974c0,6.104-0.434,11.92-1.226,17.92H291.596c-0.79-6-1.223-11.815-1.223-17.919
			c0-31.281,10.798-59.569,28.226-79.975c-2.548-0.242-5.115-0.401-7.715-0.401c-48.516,0-88.534,43.294-94.478,98.294H52.36z
			 M469.207,279.494c27.193,0,49.229,29.646,49.229,66.211c0,36.572-22.036,66.215-49.229,66.215
			c-27.189,0-49.228-29.643-49.228-66.215C419.979,309.14,442.019,279.494,469.207,279.494z M304.201,278.889
			c27.19,0,49.224,29.646,49.224,66.21c0,36.573-22.034,66.216-49.224,66.216s-49.23-29.643-49.23-66.216
			C254.97,308.535,277.01,278.889,304.201,278.889z"/>
		<ellipse fill="#111111" cx="449.149" cy="553.421" rx="24.31" ry="33.429"/>
		<circle fill="#111111" cx="552.936" cy="619.961" r="12.264"/>
		<circle fill="#111111" cx="577.309" cy="643.404" r="12.264"/>
		<ellipse fill="#111111" cx="327.292" cy="553.425" rx="24.309" ry="33.429"/>
	</g>
</g>
<g id="Flat">
	<rect x="1085" y="279" fill="#E831D2" width="1136" height="1049"/>
	<path fill="#FFFFFF" d="M190,487.526c34-18.155,75.355-31.616,121.039-38.625l47.037-47.146c14.184-14.184,37.333-14.184,51.517,0
		l47.33,47.125C502.872,455.914,544,469.475,579,487.775V306.799C659,293.163,715.66,258,715.66,217H550.951
		c-5.94-55-45.954-98.294-94.475-98.294c-2.599,0-5.164,0.158-7.714,0.4c17.428,20.406,28.227,48.692,28.227,79.973
		c0,6.104-0.435,11.92-1.226,17.92H291.596c-0.79-6-1.223-11.815-1.223-17.919c0-31.281,10.798-59.568,28.226-79.974
		c-2.548-0.242-5.115-0.401-7.715-0.401c-48.516,0-88.534,43.295-94.478,98.295H52.36c0,41,56.64,76.188,137.64,89.813V487.526z
		 M400,884h123V773.371c-37,11.85-79,19.131-123,20.605V884z M427,855h88v21h-88V855z M254,862h111v-68.102
		c-39-1.488-77-7.703-111-17.736V862z M269,835h88v21h-88V835z M887.649,230.706c-0.294,0-96.432,0.037-129.466,0.05
		C750.446,280.688,701,321.299,622,342.084v174.785c35,28.739,54.761,63.941,54.761,101.981c0,44.746-27.956,85.559-74.022,116.545
		c2.026,25.881,24.893,48.203,57.991,60.119l-4.647,6.697c-6.02,8.629-6.031,19.012-0.04,23.186c1.687,1.18,3.682,1.734,5.804,1.734
		c5.386,0,11.625-3.611,15.943-9.807l10.275-14.801c4.231,0.69,8.936,1.207,12.936,1.578v17.139c0,10.52,6.199,19.053,13.502,19.053
		c7.299,0,13.498-8.533,13.498-19.053V804.35c4-0.299,8.672-0.785,13.004-1.412l9.906,14.387c4.32,6.195,10.495,9.807,15.884,9.807
		c2.119,0,4.079-0.555,5.766-1.734c5.983-4.174,5.948-14.557-0.066-23.186l-4.078-5.846c10.949-3.717,20.81-8.57,29.278-14.301
		l0.01-127.283c0-9.488,8.42-17.182,18.801-17.182c10.391,0,18.802,7.744,18.802,17.233L835.357,897h130.674
		c0,0,0.023-587.601,0.023-587.839C966.055,265.856,930.952,230.706,887.649,230.706z M718.092,780.127
		c-34.237,0-61.993-23.399-61.993-52.266c0-9.994,3.384-19.295,9.153-27.236c0.378,17.24,16.8,31.115,37.039,31.115
		c20.472,0,37.069-14.199,37.069-31.721c0-9.529-4.934-18.059-12.711-23.873c30.175,3.521,53.435,25.297,53.435,51.715
		C780.084,756.728,752.328,780.127,718.092,780.127z M833.95,545.48c0.051,0.631,0.092,1.268,0.092,1.912
		c0,12.443-9.738,22.531-21.754,22.531c-3.642,0-7.067-0.938-10.081-2.574c-10.926,26.473-36.287,45.031-65.843,45.031
		c-39.542,0-71.595-33.197-71.595-74.151c0-26.8,13.783-50.212,34.358-63.234c-9.149-18.322-14.348-39.098-14.348-61.144
		c0-73.623,57.633-133.314,128.719-133.314c71.095,0,128.722,59.691,128.722,133.314C942.221,480.272,895.32,535.33,833.95,545.48z
		 M960,891h-88v-22h88V891z M445.144,471.929l-40.764-40.761c-11.346-11.346-29.913-11.346-41.259,0l-40.783,40.782
		c-110.003,16.442-191.507,75.959-191.507,146.9c0,83.629,113.266,151.424,252.982,151.424
		c139.718,0,252.984-67.795,252.984-151.424C636.798,547.877,555.217,488.338,445.144,471.929z M383.814,759.152
		c-129.144,0-233.837-60.812-233.837-135.836c0-64.09,76.428-117.778,179.212-132.072l41.669-41.67
		c7.092-7.089,18.694-7.089,25.786,0l41.652,41.652c102.856,14.262,179.355,67.969,179.355,132.09
		C617.651,698.34,512.96,759.152,383.814,759.152z M789.207,849.332c-6.547,4.561-14.315,6.973-22.475,6.973
		c-6.656,0-13.25-1.592-19.38-4.549c-6.754,9.523-16.686,15.752-28.131,17.197l0.232,0.047h78.227l0.003-27.979
		C795.324,844.064,792.521,847.021,789.207,849.332z"/>
	<path opacity="0.8" d="M1008.584,297.563c-0.327-60.478-49.441-109.404-109.993-109.404c-0.449,0-135.565,0.033-150.057,0.036
		c-8.02-9.145-19.758-14.946-32.874-14.946H585.606c-20.613-58.075-71.146-98.298-129.13-98.298c-3.758,0-7.635,0.194-11.85,0.595
		c-16.254,1.543-30.299,12.007-36.424,27.144c-6.126,15.135-3.319,32.423,7.286,44.839c6.132,7.179,10.84,16.008,13.861,25.72
		h-91.336c3.02-9.711,7.728-18.541,13.861-25.72c10.603-12.416,13.413-29.704,7.286-44.839
		c-6.124-15.137-20.171-25.601-36.426-27.144c-4.213-0.401-8.089-0.595-11.852-0.595c-57.984,0-108.515,40.225-129.13,98.298H52.36
		c-24.168,0-43.758,19.592-43.758,43.759c0,56.215,51.649,102.447,137.199,125.099v174.356
		c-34.659,28.814-55.082,64.17-55.082,102.387c0,58.219,47.415,109.783,120.35,141.695v108.25c0,21.418,18.302,38.783,40.881,38.783
		h89.933c1.446,0,2.872-0.076,4.279-0.215c6.612,13.043,22.007,22.195,39.953,22.195h134.5c23.972,0,43.407-16.328,43.407-36.465
		V757.117c4.078-1.904,8.098-3.854,12.002-5.883c6.018,22.949,22.47,43.469,46.753,58.352c-0.245,1.947-0.37,3.891-0.375,5.826
		c-0.031,14.019,6.155,26.383,16.973,33.92c4.923,3.428,10.539,5.645,16.493,6.531v18.639c0,21.416,18.296,38.779,40.875,38.779
		c0,0,90.808,0.033,91.479,0c4.476,16.129,22.091,28.062,42.631,28.062h134.31c23.941,0,43.44-16.328,43.44-36.467V297.563H1008.584
		z M52.36,217.007h164.046c5.944-55.429,45.962-98.297,94.478-98.297c2.601,0,5.167,0.156,7.715,0.398
		c-17.428,20.406-28.226,48.695-28.226,79.976c0,6.104,0.433,12.083,1.223,17.923h184.168c0.792-5.84,1.226-11.819,1.226-17.923
		c0-31.281-10.8-59.57-28.227-79.976c2.55-0.242,5.115-0.398,7.714-0.398c48.521,0,88.534,42.869,94.475,98.297H715.66
		c0,41.099-57.023,76.155-137.119,89.792v180.976c-34.36-18.3-75.926-31.861-121.876-38.894l-47.128-47.125
		c-14.184-14.184-37.388-14.184-51.572,0l-47.147,47.146c-45.684,7.009-87.026,20.469-121.259,38.625V306.813
		C109.419,293.188,52.36,258.121,52.36,217.007z M365.279,862.475H254.057v-86.312c33.889,10.033,71.479,16.248,111.223,17.736
		V862.475z M522.538,883.898H400.376v-89.922c44.027-1.475,85.445-8.756,122.162-20.606V883.898z M383.814,770.273
		c-139.716,0-252.982-67.795-252.982-151.424c0-70.94,81.505-130.458,191.507-146.9l40.783-40.782
		c11.346-11.346,29.913-11.346,41.259,0l40.764,40.761c110.072,16.409,191.653,75.948,191.653,146.921
		C636.798,702.479,523.532,770.273,383.814,770.273z M797.682,869.398h-78.227l-0.232-0.246
		c11.444-1.445,21.377-7.873,28.131-17.396c6.13,2.957,12.724,4.549,19.38,4.549c8.159,0,15.928-2.412,22.475-6.973
		c3.315-2.31,6.117-5.068,8.478-8.111L797.682,869.398z M966.031,896.898H835.357l-0.051-242.117
		c0-9.488-8.412-17.182-18.803-17.182c-10.381,0-18.802,7.693-18.802,17.182l-0.012,127.283
		c-8.469,5.73-18.333,10.584-29.282,14.301l4.07,5.846c6.014,8.629,6.034,19.012,0.051,23.186c-1.688,1.18-3.678,1.734-5.797,1.734
		c-5.389,0-11.625-3.611-15.945-9.807l-10.028-14.387c-4.332,0.627-8.748,1.113-13.25,1.412v16.891
		c0,10.52-5.918,19.053-13.217,19.053c-7.303,0-13.221-8.533-13.221-19.053v-17.139c-4.407-0.371-8.739-0.889-12.971-1.578
		l-10.31,14.801c-4.317,6.195-10.555,9.807-15.94,9.807c-2.121,0-4.112-0.555-5.799-1.734c-5.99-4.174-5.97-14.557,0.05-23.186
		l4.666-6.697c-33.099-11.916-55.928-34.238-57.954-60.119c46.066-30.986,74.097-71.799,74.097-116.545
		c0-38.039-20.246-73.241-54.611-101.981V342.085c78.412-20.785,128.297-61.396,136.034-111.329
		c33.034-0.013,129.022-0.05,129.316-0.05c43.303,0,78.405,35.1,78.405,78.404C966.055,309.348,966.031,896.898,966.031,896.898z"/>
	<circle fill="#FFFFFF" cx="186.778" cy="599.065" r="12.264"/>
	<circle fill="#FFFFFF" cx="211.075" cy="619.869" r="12.265"/>
	<circle fill="#FFFFFF" cx="186.702" cy="643.312" r="12.264"/>
	<circle fill="#FFFFFF" cx="577.232" cy="599.158" r="12.264"/>
	<circle fill="#FFFFFF" cx="552.937" cy="619.961" r="12.264"/>
	<circle fill="#FFFFFF" cx="577.308" cy="643.404" r="12.264"/>
	<ellipse opacity="0.8" cx="327.294" cy="553.425" rx="24.31" ry="33.429"/>
	<ellipse opacity="0.8" cx="449.149" cy="553.422" rx="24.31" ry="33.428"/>
	<path opacity="0.9" d="M469.207,279.494c-27.189,0-49.228,29.646-49.228,66.211c0,36.572,22.04,66.215,49.228,66.215
		c27.193,0,49.229-29.643,49.229-66.215C518.436,309.14,496.401,279.494,469.207,279.494z M478.182,359.205
		c-12.122,0-21.95-13.223-21.95-29.529c0-16.305,9.828-29.528,21.95-29.528c12.133,0,21.958,13.223,21.958,29.528
		C500.14,345.982,490.315,359.205,478.182,359.205z"/>
	<path opacity="0.9" d="M304.201,278.889c-27.19,0-49.23,29.646-49.23,66.21c0,36.573,22.04,66.216,49.23,66.216
		c27.19,0,49.224-29.643,49.224-66.216C353.425,308.535,331.391,278.889,304.201,278.889z M313.175,358.599
		c-12.123,0-21.952-13.223-21.952-29.529c0-16.305,9.829-29.527,21.952-29.527c12.131,0,21.956,13.223,21.956,29.527
		C335.131,345.376,325.306,358.599,313.175,358.599z"/>
	<g opacity="0.8">
		<path d="M700.434,424.831h12.74c11.44,0,17.836,5.72,17.836,17.681c0,12.429-5.46,19.449-17.836,19.449h-12.74V424.831z
			 M705.373,457.8h8.217c3.38,0,12.48-0.936,12.48-14.613c0-8.84-3.276-14.196-12.377-14.196h-8.32V457.8z"/>
		<path d="M759.475,461.856c-0.78,0.468-1.769,0.728-3.173,0.728c-2.288,0-3.744-1.248-3.744-4.16c-2.444,2.86-5.72,4.16-9.464,4.16
			c-4.889,0-8.893-2.184-8.893-7.541c0-6.084,4.524-7.384,9.101-8.268c4.888-0.936,9.048-0.624,9.048-3.952
			c0-3.848-3.172-4.472-5.981-4.472c-3.744,0-6.5,1.144-6.708,5.096h-4.42c0.26-6.656,5.408-8.997,11.389-8.997
			c4.836,0,10.088,1.092,10.088,7.385v13.832c0,2.08,0,3.017,1.404,3.017c0.364,0,0.78-0.052,1.353-0.26V461.856z M752.298,448.076
			c-1.716,1.248-5.044,1.3-8.009,1.82c-2.912,0.52-5.408,1.56-5.408,4.836c0,2.912,2.496,3.952,5.201,3.952
			c5.824,0,8.216-3.641,8.216-6.085V448.076z"/>
		<path d="M764.444,438.976h-4.524v-3.9h4.524v-4.004c0-4.368,2.6-6.656,7.437-6.656c0.832,0,2.027,0.156,2.859,0.416v3.848
			c-0.779-0.26-1.716-0.364-2.496-0.364c-2.132,0-3.38,0.676-3.38,3.016v3.744h5.2v3.9h-5.2v22.985h-4.42V438.976z"/>
		<path d="M784.941,435.075h5.356v3.9h-5.356v16.692c0,2.028,0.572,2.392,3.328,2.392h2.028v3.9h-3.38
			c-4.576,0-6.397-0.936-6.397-5.876v-17.108h-4.576v-3.9h4.576v-8.06h4.42V435.075z"/>
		<path d="M827.91,447.868c-0.676,3.796-3.588,14.977-19.033,14.977c-10.764,0-15.964-6.969-15.964-16.901
			c0-12.012,7.488-21.996,20.124-21.996c8.269,0,15.653,3.588,15.861,14.716h-10.816c0.104-3.484-1.56-5.461-5.097-5.461
			c-6.344,0-8.632,7.28-8.632,12.533c0,3.068,0.728,7.852,5.981,7.852c3.588,0,5.615-2.444,6.344-5.72H827.91z"/>
		<path d="M844.736,434.295c7.904,0,13.104,3.64,13.104,11.804c0,6.917-3.848,16.537-16.276,16.537
			c-7.436,0-13.468-3.588-13.468-12.637C828.096,441.368,833.711,434.295,844.736,434.295z M842.031,455.148
			c4.057,0,5.513-5.98,5.513-8.32c0-3.225-0.832-5.044-3.588-5.044c-4.108,0-5.564,6.188-5.564,8.997
			C838.392,452.964,839.119,455.148,842.031,455.148z"/>
		<path d="M889.721,461.96h-10.712l-0.521-15.756h-0.104l-6.969,15.756h-10.66l-2.704-26.989h10.141l0.78,15.236h0.104l6.604-15.236
			h9.828l0.624,15.236h0.104l6.656-15.236h10.921L889.721,461.96z"/>
		<path d="M902.626,436.792c1.092-8.632,6.448-12.844,15.549-12.844c6.395,0,12.896,1.82,12.896,9.36c0,6.5-3.328,8.06-5.824,9.464
			c-3.536,1.976-7.229,2.185-7.28,6.137h-9.517c0.676-4.836,2.132-7.853,6.864-9.829c3.276-1.352,4.889-1.924,4.94-3.9
			c0-0.832-0.416-2.704-3.12-2.704c-3.328,0-4.004,3.016-4.057,4.316H902.626z M907.41,451.664h10.66l-2.132,10.296h-10.66
			L907.41,451.664z"/>
	</g>
</g>
<g id="Editable_Text" display="none">
	<path display="inline" fill="#FFFFFF" d="M830.852,921c-11.042,0-20.89-5.769-22.906-13.036
		C805.511,899.185,797.59,893,788.235,893h-0.466c-0.434,0-1.461,0.208-2.978,0.174c-4.024-0.089-11.517-0.14-20.585-0.14
		c-26.812,0-67.259-0.116-67.665-0.118c-11.177,0-20.541-8.402-20.541-18.414v-18.639c0-10.25-7.336-18.766-17.286-20.248
		c-2.771-0.41-5.339-1.418-7.724-3.079c-5.262-3.664-8.179-9.729-8.163-17.077c0.006-1.271,0.119-2.379,0.238-3.32
		c1.004-7.963-2.771-15.819-9.603-20.007c-19.635-12.032-33.005-28.401-37.643-46.092c-1.588-6.054-5.781-10.981-11.5-13.518
		c-2.629-1.166-5.421-1.758-8.297-1.758c-3.273,0-6.538,0.798-9.44,2.308c-3.028,1.574-6.722,3.27-11.501,5.5
		C547.872,741.938,543,749.219,543,757.117v135.977c0,8.602-9.809,15.906-22.386,15.906h-134.5c-9.708,0-18.426-4.488-21.695-10.94
		c-3.458-6.821-10.4-11.149-18.136-11.19c-0.192,0.02-0.385,0.015-0.578,0.043c-0.315,0.046-0.632-0.109-0.948-0.07
		C344.106,887,343.111,887,341.883,887H251.95c-11.402,0-20.95-8.14-20.95-18.205v-108.25c0-8.341-4.622-15.525-11.994-18.75
		c-67.583-29.574-107.952-75.535-107.952-122.945c0-38.56,26.184-68.401,48.129-86.646c4.879-4.056,7.816-9.94,7.816-15.741V342.106
		c0-9.225-6.434-17.362-15.595-19.787c-36.62-9.696-67.093-24.053-88.092-41.517c-22.282-18.531-34.068-40.538-34.068-63.654
		C29.245,204.381,39.609,194,52.36,194h129.394c8.617,0,16.37-5.535,19.29-13.763c18.274-51.48,61.388-84.747,109.839-84.747
		c3.351,0,6.594,0.152,9.913,0.468c8.693,0.825,16.124,6.354,19.39,14.427c3.273,8.083,1.788,17.227-3.876,23.859
		c-7.818,9.151-13.987,20.537-17.841,32.93c-1.943,6.246-0.798,13.111,3.062,18.354c3.902,5.3,10.065,8.471,16.484,8.471h91.336
		c6.418,0,12.581-3.172,16.485-8.475c3.851-5.232,4.995-12.07,3.06-18.287c-3.867-12.431-10.037-23.832-17.842-32.97
		c-5.667-6.636-7.152-15.786-3.876-23.88c3.274-8.093,10.703-13.633,19.385-14.457c3.581-0.342,6.825-0.508,9.915-0.508
		c48.439,0,91.553,33.295,109.839,84.815c2.92,8.227,10.673,13.761,19.291,13.761H715.66c6.742,0,13.114,2.85,17.481,7.829
		c3.851,4.391,9.46,6.905,15.393,6.905l150.053-0.071c48.952,0,88.884,39.63,89.456,88.457c0.049,0.387-0.043,0.903-0.043,1.495
		v606.261c0,8.525-10.523,16.123-22.838,16.123H830.852z"/>
	<path display="inline" d="M1008.584,297.563c-0.327-60.478-49.441-109.404-109.993-109.404c-0.449,0-135.565,0.033-150.057,0.036
		c-8.02-9.145-19.758-14.946-32.874-14.946H585.606c-20.613-58.075-71.146-98.298-129.13-98.298c-3.758,0-7.635,0.194-11.85,0.595
		c-16.254,1.543-30.299,12.007-36.424,27.144c-6.126,15.135-3.319,32.423,7.286,44.839c6.132,7.179,10.84,16.008,13.861,25.72
		h-91.336c3.02-9.711,7.728-18.541,13.861-25.72c10.603-12.416,13.413-29.704,7.286-44.839
		c-6.124-15.137-20.171-25.601-36.426-27.144c-4.213-0.401-8.089-0.595-11.852-0.595c-57.984,0-108.515,40.225-129.13,98.298H52.36
		c-24.168,0-43.758,19.592-43.758,43.759c0,56.215,51.649,102.447,137.199,125.099v174.356
		c-34.659,28.814-55.082,64.17-55.082,102.387c0,58.219,47.415,109.783,120.35,141.695v108.25c0,21.418,18.302,38.783,40.881,38.783
		h89.933c1.446,0,2.872-0.076,4.279-0.215c6.612,13.043,22.007,22.195,39.953,22.195h134.5c23.972,0,43.407-16.328,43.407-36.465
		V757.117c4.078-1.904,8.098-3.854,12.002-5.883c6.018,22.949,22.47,43.469,46.753,58.352c-0.245,1.947-0.37,3.891-0.375,5.826
		c-0.031,14.019,6.155,26.383,16.973,33.92c4.923,3.428,10.539,5.645,16.493,6.531v18.639c0,21.416,18.296,38.779,40.875,38.779
		c0,0,90.808,0.033,91.479,0c4.476,16.129,22.091,28.062,42.631,28.062h134.31c23.941,0,43.44-16.328,43.44-36.467V297.563H1008.584
		z M52.36,217.007h164.046c5.944-55.429,45.962-98.297,94.478-98.297c2.601,0,5.167,0.156,7.715,0.398
		c-17.428,20.406-28.226,48.695-28.226,79.976c0,6.104,0.433,12.083,1.223,17.923h184.168c0.792-5.84,1.226-11.819,1.226-17.923
		c0-31.281-10.8-59.57-28.227-79.976c2.55-0.242,5.115-0.398,7.714-0.398c48.521,0,88.534,42.869,94.475,98.297H715.66
		c0,41.099-57.023,76.155-137.119,89.792v180.976c-34.36-18.3-75.926-31.861-121.876-38.894l-47.128-47.125
		c-14.184-14.184-37.388-14.184-51.572,0l-47.147,47.146c-45.684,7.009-87.026,20.469-121.259,38.625V306.813
		C109.419,293.188,52.36,258.121,52.36,217.007z M365.279,862.475H254.057v-86.312c33.889,10.033,71.479,16.248,111.223,17.736
		V862.475z M522.538,883.898H400.376v-89.922c44.027-1.475,85.445-8.756,122.162-20.606V883.898z M383.814,770.273
		c-139.716,0-252.982-67.795-252.982-151.424c0-70.94,81.505-130.458,191.507-146.9l40.783-40.782
		c11.346-11.346,29.913-11.346,41.259,0l40.764,40.761c110.072,16.409,191.653,75.948,191.653,146.921
		C636.798,702.479,523.532,770.273,383.814,770.273z M797.682,869.398h-78.227l-0.232-0.246
		c11.444-1.445,21.377-7.873,28.131-17.396c6.13,2.957,12.724,4.549,19.38,4.549c8.159,0,15.928-2.412,22.475-6.973
		c3.315-2.31,6.117-5.068,8.478-8.111L797.682,869.398z M966.031,896.898H835.357l-0.051-242.117
		c0-9.488-8.412-17.182-18.803-17.182c-10.381,0-18.802,7.693-18.802,17.182l-0.012,127.283
		c-8.469,5.73-18.333,10.584-29.282,14.301l4.07,5.846c6.014,8.629,6.034,19.012,0.051,23.186c-1.688,1.18-3.678,1.734-5.797,1.734
		c-5.389,0-11.625-3.611-15.945-9.807l-10.028-14.387c-4.332,0.627-8.748,1.113-13.25,1.412v16.891
		c0,10.52-5.918,19.053-13.217,19.053c-7.303,0-13.221-8.533-13.221-19.053v-17.139c-4.407-0.371-8.739-0.889-12.971-1.578
		l-10.31,14.801c-4.317,6.195-10.555,9.807-15.94,9.807c-2.121,0-4.112-0.555-5.799-1.734c-5.99-4.174-5.97-14.557,0.05-23.186
		l4.666-6.697c-33.099-11.916-55.928-34.238-57.954-60.119c46.066-30.986,74.097-71.799,74.097-116.545
		c0-38.039-20.246-73.241-54.611-101.981V342.085c78.412-20.785,128.297-61.396,136.034-111.329
		c33.034-0.013,129.022-0.05,129.316-0.05c43.303,0,78.405,35.1,78.405,78.404C966.055,309.348,966.031,896.898,966.031,896.898z"/>
	<path display="inline" fill="#FF6600" d="M438.296,491.227l-41.652-41.652c-7.092-7.089-18.694-7.089-25.786,0l-41.669,41.67
		c-102.784,14.293-179.212,67.982-179.212,132.072c0,75.023,104.693,135.836,233.837,135.836
		c129.146,0,233.837-60.812,233.837-135.836C617.651,559.195,541.152,505.488,438.296,491.227z"/>
	<circle display="inline" fill="#FFFFFF" cx="186.778" cy="599.065" r="12.264"/>
	<circle display="inline" fill="#FFFFFF" cx="211.075" cy="619.869" r="12.265"/>
	<circle display="inline" fill="#FFFFFF" cx="186.702" cy="643.312" r="12.264"/>
	<circle display="inline" fill="#FFFFFF" cx="577.232" cy="599.158" r="12.264"/>
	<circle display="inline" fill="#FFFFFF" cx="552.937" cy="619.961" r="12.264"/>
	<circle display="inline" fill="#FFFFFF" cx="577.308" cy="643.404" r="12.264"/>
	<ellipse display="inline" cx="327.294" cy="553.425" rx="24.31" ry="33.429"/>
	<ellipse display="inline" cx="449.149" cy="553.422" rx="24.31" ry="33.428"/>
	<path display="inline" d="M518.436,345.705c0,36.572-22.036,66.215-49.229,66.215c-27.189,0-49.228-29.643-49.228-66.215
		c0-36.565,22.04-66.211,49.228-66.211C496.401,279.494,518.436,309.14,518.436,345.705z"/>
	<path display="inline" fill="#FFFFFF" d="M500.14,329.676c0,16.306-9.825,29.529-21.958,29.529
		c-12.122,0-21.95-13.223-21.95-29.529c0-16.305,9.828-29.528,21.95-29.528C490.314,300.148,500.14,313.371,500.14,329.676z"/>
	<path display="inline" d="M353.425,345.099c0,36.573-22.034,66.216-49.224,66.216s-49.23-29.643-49.23-66.216
		c0-36.564,22.04-66.21,49.23-66.21S353.425,308.535,353.425,345.099z"/>
	<path display="inline" fill="#FFFFFF" d="M335.131,329.07c0,16.307-9.825,29.529-21.956,29.529
		c-12.123,0-21.952-13.223-21.952-29.529c0-16.305,9.829-29.527,21.952-29.527C325.306,299.543,335.131,312.765,335.131,329.07z"/>
	<path display="inline" fill="#FF6600" d="M726.649,676.146c7.777,5.814,12.711,14.344,12.711,23.873
		c0,17.522-16.598,31.721-37.069,31.721c-20.239,0-36.661-13.875-37.039-31.115c-5.77,7.941-9.153,17.242-9.153,27.236
		c0,28.867,27.756,52.266,61.993,52.266c34.236,0,61.992-23.398,61.992-52.266C780.084,701.443,756.824,679.668,726.649,676.146z"/>
	<rect x="426.665" y="854.879" display="inline" fill="#FF6600" width="87.975" height="21.498"/>
	<rect x="268.985" y="834.631" display="inline" fill="#FF6600" width="87.975" height="21.498"/>
	<rect x="871.62" y="869.051" display="inline" fill="#FF6600" width="87.975" height="21.496"/>
	<path display="inline" fill="#FF6600" d="M942.221,413.851c0-73.623-57.627-133.314-128.722-133.314
		c-71.086,0-128.719,59.691-128.719,133.314c0,22.046,5.198,42.823,14.348,61.145c-20.575,13.023-34.358,36.434-34.358,63.234
		c0,40.954,32.053,74.151,71.595,74.151c29.556,0,54.917-18.559,65.843-45.031c3.014,1.637,6.44,2.574,10.081,2.574
		c12.016,0,21.754-10.088,21.754-22.531c0-0.645-0.041-1.281-0.092-1.912C895.32,535.33,942.221,480.272,942.221,413.851z"/>
	<text transform="matrix(1 0 0 1 696.377 461.9604)" display="inline"><tspan x="0" y="0" font-family="'HelveticaNeueLTStd-Roman'" font-size="52">Daft</tspan><tspan x="92.09" y="0" font-family="'HelveticaNeueLTStd-BlkIt'" font-size="52" letter-spacing="-2">Cow?</tspan></text>
</g>
</svg>
