<?xml version="1.0" encoding="utf-8"?>
<!-- Generator: Adobe Illustrator 17.0.0, SVG Export Plug-In . SVG Version: 6.00 Build 0)  -->
<!DOCTYPE svg PUBLIC "-//W3C//DTD SVG 1.1//EN" "http://www.w3.org/Graphics/SVG/1.1/DTD/svg11.dtd">
<svg version="1.1" id="Layer_1" xmlns="http://www.w3.org/2000/svg" xmlns:xlink="http://www.w3.org/1999/xlink" x="0px" y="0px"
	 width="440px" height="381.213px" viewBox="0 0 440 381.213" enable-background="new 0 0 440 381.213" xml:space="preserve">
<g>
	<path fill="#FFFFFF" d="M321.583,333.357c-3.823,0-7.233-2.65-7.932-5.166c-0.843-3.04-3.586-5.834-6.825-5.834h-0.161
		c-0.15,0-0.506,0.327-1.031,0.315c-1.393-0.031-3.988,0.079-7.128,0.079c-9.284,0-22.986,0.023-23.127,0.023
		c-3.87,0-6.81-2.846-6.81-6.312v-6.454c0-3.549-2.843-6.498-6.288-7.011c-0.959-0.142-2-0.491-2.826-1.066
		c-1.822-1.269-2.908-3.369-2.902-5.913c0.002-0.44,0.003-0.824,0.045-1.15c0.348-2.757-0.978-5.478-3.344-6.928
		c-6.799-4.166-11.438-9.834-13.044-15.96c-0.55-2.096-2.007-3.802-3.987-4.681c-0.91-0.404-1.879-0.609-2.875-0.609
		c-1.133,0-2.265,0.276-3.27,0.799c-1.049,0.545-1.999,1.132-3.654,1.904c-2.496,1.166-3.855,3.687-3.855,6.422v47.084
		c0,2.978-4.055,5.458-8.41,5.458h-46.572c-3.362,0-6.38-1.529-7.512-3.763c-1.197-2.362-3.601-3.848-6.28-3.862
		c-0.067,0.007-0.133,0.011-0.2,0.021c-0.109,0.016-0.219,0.249-0.328,0.263c-0.225,0.055-0.57,0.342-0.995,0.342h-31.14
		c-3.948,0-7.562-3.387-7.562-6.872v-37.483c0-2.888-1.447-5.376-3.999-6.492c-23.402-10.24-37.303-26.155-37.303-42.571
		c0-13.352,9.532-23.685,17.131-30.002c1.69-1.404,3.172-3.442,3.172-5.451v-60.373c0-3.194-2.654-6.012-5.827-6.852
		c-12.68-3.357-23.445-8.329-30.716-14.376c-7.715-6.417-11.903-13.773-11.903-21.777c0-4.421,3.482-7.751,7.897-7.751h44.804
		c2.984,0,5.668-2.181,6.68-5.03c6.327-17.826,21.256-29.477,38.033-29.477c1.16,0,2.283-0.013,3.432,0.096
		c3.01,0.286,5.583,2.167,6.714,4.963c1.133,2.799,0.619,5.948-1.342,8.245c-2.707,3.169-4.843,7.103-6.178,11.394
		c-0.673,2.163-0.276,4.8,1.06,6.616c1.351,1.835,3.485,3.193,5.708,3.193h31.626c2.222,0,4.356-1.363,5.708-3.199
		c1.333-1.812,1.73-4.311,1.06-6.464c-1.339-4.304-3.475-8.318-6.178-11.482c-1.962-2.298-2.476-5.499-1.342-8.302
		c1.134-2.802,3.706-4.737,6.712-5.022c1.24-0.118,2.363-0.184,3.433-0.184c16.773,0,31.701,11.789,38.033,29.628
		c1.011,2.849,3.696,5.025,6.68,5.025h45.033c2.335,0,4.541,0.723,6.053,2.447c1.333,1.52,3.276,2.259,5.33,2.259l51.958-0.091
		c16.95,0,31.063,13.689,31.261,30.597c0.017,0.134,0.271,0.28,0.271,0.485v209.926c0,2.952-4.215,6.378-8.479,6.378H321.583z"/>
	<path d="M383.125,116.689c-0.113-20.941-17.12-37.883-38.087-37.883c-0.156,0-46.941,0.011-51.959,0.013
		c-2.777-3.167-6.841-5.175-11.383-5.175h-45.033c-7.138-20.109-24.635-34.037-44.713-34.037c-1.301,0-2.644,0.067-4.103,0.206
		c-5.628,0.534-10.491,4.158-12.612,9.399c-2.121,5.241-1.149,11.227,2.523,15.526c2.123,2.486,3.753,5.543,4.8,8.906h-31.626
		c1.046-3.363,2.676-6.42,4.8-8.906c3.672-4.299,4.644-10.285,2.523-15.526c-2.12-5.241-6.984-8.865-12.613-9.399
		c-1.459-0.139-2.801-0.206-4.104-0.206c-20.078,0-37.575,13.928-44.713,34.037H52.02c-8.368,0-15.152,6.784-15.152,15.152
		c0,19.465,17.884,35.474,47.507,43.317v60.373c-12.001,9.977-19.073,22.22-19.073,35.453c0,20.159,16.418,38.014,41.673,49.064
		v37.483c0,7.416,6.337,13.429,14.156,13.429h31.14c0.501,0,0.994-0.026,1.482-0.074c2.289,4.516,7.62,7.685,13.834,7.685h46.572
		c8.3,0,15.03-5.654,15.03-12.626v-47.084c1.412-0.659,2.804-1.334,4.156-2.037c2.084,7.946,7.78,15.052,16.189,20.205
		c-0.085,0.674-0.128,1.347-0.13,2.017c-0.011,4.854,2.131,9.135,5.877,11.745c1.705,1.187,3.649,1.955,5.711,2.262v6.454
		c0,7.416,6.335,13.428,14.154,13.428c0,0,31.443,0.012,31.676,0c1.55,5.585,7.649,9.717,14.761,9.717h46.506
		c8.29,0,15.042-5.654,15.042-12.627v-210.29H383.125z M52.02,88.796h56.803c2.058-19.193,15.915-34.037,32.714-34.037
		c0.9,0,1.789,0.054,2.672,0.138c-6.035,7.066-9.774,16.861-9.774,27.693c0,2.114,0.15,4.184,0.424,6.206h63.771
		c0.274-2.022,0.425-4.092,0.425-6.206c0-10.832-3.74-20.627-9.774-27.693c0.883-0.084,1.771-0.138,2.671-0.138
		c16.801,0,30.656,14.844,32.713,34.037h57.033c0,14.231-19.745,26.37-47.479,31.091v62.665
		c-11.898-6.337-26.29-11.032-42.201-13.468l-16.319-16.318c-4.911-4.911-12.946-4.911-17.857,0l-16.325,16.325
		c-15.819,2.427-30.134,7.088-41.988,13.374v-62.574C71.778,115.174,52.02,103.032,52.02,88.796z M160.373,312.297H121.86V282.41
		c11.734,3.474,24.75,5.626,38.512,6.141V312.297z M214.826,319.715h-42.3v-31.137c15.245-0.511,29.587-3.032,42.3-7.135V319.715z
		 M166.791,280.371c-48.379,0-87.598-23.475-87.598-52.432c0-24.564,28.222-45.173,66.312-50.866l14.122-14.121
		c3.929-3.929,10.358-3.929,14.286,0l14.115,14.114c38.114,5.682,66.362,26.298,66.362,50.873
		C254.389,256.896,215.17,280.371,166.791,280.371z M310.098,314.694H283.01l-0.08-0.085c3.963-0.5,7.402-2.726,9.741-6.024
		c2.123,1.024,4.406,1.575,6.711,1.575c2.825,0,5.515-0.835,7.782-2.414c1.148-0.8,2.118-1.755,2.935-2.809L310.098,314.694z
		 M368.391,324.217h-45.248l-0.018-83.836c0-3.285-2.913-5.949-6.511-5.949c-3.595,0-6.51,2.664-6.51,5.949l-0.004,44.073
		c-2.932,1.984-6.348,3.665-10.139,4.952l1.409,2.024c2.082,2.988,2.089,6.583,0.018,8.028c-0.584,0.408-1.273,0.601-2.007,0.601
		c-1.866,0-4.025-1.25-5.521-3.396l-3.472-4.982c-1.5,0.217-3.029,0.385-4.588,0.489v5.849c0,3.643-2.049,6.597-4.576,6.597
		c-2.529,0-4.578-2.955-4.578-6.597v-5.934c-1.526-0.129-3.026-0.308-4.491-0.546l-3.57,5.125c-1.495,2.145-3.655,3.396-5.52,3.396
		c-0.734,0-1.424-0.192-2.008-0.601c-2.074-1.445-2.067-5.04,0.017-8.028l1.616-2.319c-11.461-4.126-19.366-11.855-20.067-20.817
		c15.951-10.729,25.657-24.861,25.657-40.355c0-13.172-7.01-25.361-18.91-35.312v-60.521c27.151-7.197,44.424-21.259,47.104-38.549
		c11.439-0.004,44.676-0.017,44.777-0.017c14.994,0,27.149,12.154,27.149,27.149C368.399,120.77,368.391,324.217,368.391,324.217z"
		/>
	<path fill="#FF6600" d="M185.656,183.748l-14.423-14.423c-2.456-2.455-6.473-2.455-8.929,0l-14.429,14.429
		c-35.59,4.949-62.054,23.54-62.054,45.732c0,25.978,36.251,47.035,80.969,47.035c44.718,0,80.969-21.057,80.969-47.035
		C247.76,207.283,221.271,188.686,185.656,183.748z"/>
	<circle fill="#FFFFFF" cx="98.564" cy="221.088" r="4.247"/>
	<circle fill="#FFFFFF" cx="106.977" cy="228.292" r="4.247"/>
	<circle fill="#FFFFFF" cx="98.538" cy="236.409" r="4.247"/>
	<circle fill="#FFFFFF" cx="233.764" cy="221.12" r="4.246"/>
	<circle fill="#FFFFFF" cx="225.351" cy="228.323" r="4.246"/>
	<circle fill="#FFFFFF" cx="233.79" cy="236.441" r="4.247"/>
	<ellipse cx="147.22" cy="205.284" rx="8.418" ry="11.575"/>
	<ellipse cx="189.414" cy="205.283" rx="8.418" ry="11.575"/>
	<ellipse cx="196.359" cy="133.359" rx="17.046" ry="22.928"/>
	<path fill="#FFFFFF" d="M207.07,127.808c0,5.646-3.402,10.225-7.603,10.225c-4.197,0-7.601-4.579-7.601-10.225
		c0-5.646,3.403-10.224,7.601-10.224C203.668,117.584,207.07,122.163,207.07,127.808z"/>
	<ellipse cx="139.222" cy="133.149" rx="17.046" ry="22.928"/>
	<ellipse fill="#FFFFFF" cx="142.332" cy="127.599" rx="7.602" ry="10.225"/>
	<path fill="#FF6600" d="M285.502,247.778c2.693,2.013,4.401,4.967,4.401,8.266c0,6.067-5.747,10.984-12.836,10.984
		c-7.008,0-12.694-4.804-12.825-10.774c-1.998,2.75-3.169,5.97-3.169,9.431c0,9.996,9.611,18.098,21.466,18.098
		c11.855,0,21.466-8.102,21.466-18.098C304.004,256.538,295.95,248.998,285.502,247.778z"/>
	<rect x="181.628" y="309.667" fill="#FF6600" width="30.462" height="7.444"/>
	<rect x="127.029" y="302.656" fill="#FF6600" width="30.463" height="7.444"/>
	<rect x="335.7" y="314.574" fill="#FF6600" width="30.462" height="7.443"/>
	<path fill="#FF6600" d="M360.146,156.955c0-25.493-19.954-46.162-44.572-46.162c-24.614,0-44.571,20.669-44.571,46.162
		c0,7.634,1.8,14.828,4.968,21.172c-7.124,4.509-11.897,12.616-11.897,21.896c0,14.181,11.099,25.676,24.791,25.676
		c10.234,0,19.016-6.426,22.799-15.593c1.044,0.567,2.23,0.891,3.491,0.891c4.161,0,7.533-3.493,7.533-7.802
		c0-0.223-0.014-0.444-0.032-0.662C343.906,199.019,360.146,179.954,360.146,156.955z"/>
	<g>
		<path d="M276.424,160.757h4.411c3.961,0,6.176,1.981,6.176,6.122c0,4.304-1.891,6.734-6.176,6.734h-4.411V160.757z
			 M278.134,172.173h2.845c1.17,0,4.322-0.324,4.322-5.06c0-3.061-1.135-4.916-4.286-4.916h-2.881V172.173z"/>
		<path d="M296.868,173.578c-0.27,0.162-0.612,0.252-1.099,0.252c-0.792,0-1.296-0.432-1.296-1.441
			c-0.846,0.99-1.981,1.441-3.277,1.441c-1.693,0-3.079-0.756-3.079-2.611c0-2.107,1.567-2.557,3.151-2.863
			c1.692-0.324,3.133-0.216,3.133-1.368c0-1.332-1.098-1.549-2.071-1.549c-1.296,0-2.251,0.396-2.323,1.765h-1.53
			c0.09-2.305,1.873-3.115,3.943-3.115c1.674,0,3.493,0.378,3.493,2.557v4.79c0,0.72,0,1.045,0.486,1.045
			c0.126,0,0.27-0.018,0.468-0.09V173.578z M294.383,168.806c-0.594,0.432-1.747,0.45-2.773,0.63
			c-1.008,0.18-1.873,0.54-1.873,1.675c0,1.008,0.864,1.368,1.801,1.368c2.017,0,2.845-1.261,2.845-2.107V168.806z"/>
		<path d="M298.589,165.655h-1.567v-1.351h1.567v-1.386c0-1.513,0.9-2.305,2.575-2.305c0.288,0,0.702,0.054,0.99,0.144v1.332
			c-0.27-0.09-0.594-0.126-0.864-0.126c-0.738,0-1.17,0.234-1.17,1.044v1.296h1.801v1.351h-1.801v7.959h-1.53V165.655z"/>
		<path d="M305.686,164.304h1.855v1.351h-1.855v5.78c0,0.702,0.198,0.828,1.152,0.828h0.702v1.35h-1.17
			c-1.585,0-2.215-0.324-2.215-2.035v-5.924h-1.585v-1.351h1.585v-2.791h1.53V164.304z"/>
		<path d="M320.565,168.734c-0.234,1.314-1.242,5.186-6.59,5.186c-3.727,0-5.528-2.413-5.528-5.852c0-4.159,2.593-7.617,6.968-7.617
			c2.863,0,5.42,1.242,5.492,5.096h-3.745c0.036-1.206-0.54-1.891-1.765-1.891c-2.197,0-2.989,2.521-2.989,4.34
			c0,1.062,0.252,2.719,2.071,2.719c1.242,0,1.944-0.846,2.197-1.981H320.565z"/>
		<path d="M326.391,164.034c2.737,0,4.537,1.26,4.537,4.087c0,2.395-1.332,5.726-5.636,5.726c-2.575,0-4.663-1.243-4.663-4.376
			C320.629,166.483,322.573,164.034,326.391,164.034z M325.454,171.255c1.405,0,1.909-2.071,1.909-2.881
			c0-1.117-0.288-1.747-1.242-1.747c-1.423,0-1.927,2.143-1.927,3.115C324.194,170.499,324.446,171.255,325.454,171.255z"/>
		<path d="M341.967,173.614h-3.709l-0.18-5.456h-0.036l-2.413,5.456h-3.691l-0.936-9.345h3.511l0.27,5.276h0.036l2.287-5.276h3.403
			l0.216,5.276h0.036l2.305-5.276h3.781L341.967,173.614z"/>
		<path d="M346.436,164.899c0.378-2.989,2.233-4.447,5.384-4.447c2.215,0,4.466,0.63,4.466,3.241c0,2.251-1.152,2.791-2.017,3.277
			c-1.224,0.684-2.503,0.756-2.521,2.125h-3.295c0.234-1.675,0.738-2.719,2.377-3.403c1.134-0.468,1.693-0.666,1.711-1.35
			c0-0.288-0.144-0.936-1.08-0.936c-1.152,0-1.386,1.044-1.405,1.494H346.436z M348.092,170.048h3.691l-0.738,3.565h-3.691
			L348.092,170.048z"/>
	</g>
</g>
</svg>
