<?xml version="1.0" encoding="utf-8"?>
<!-- Generator: Adobe Illustrator 17.0.0, SVG Export Plug-In . SVG Version: 6.00 Build 0)  -->
<!DOCTYPE svg PUBLIC "-//W3C//DTD SVG 1.1//EN" "http://www.w3.org/Graphics/SVG/1.1/DTD/svg11.dtd">
<svg version="1.1" id="Layer_1" xmlns="http://www.w3.org/2000/svg" xmlns:xlink="http://www.w3.org/1999/xlink" x="0px" y="0px"
	 width="32px" height="32px" viewBox="0 0 32 32" enable-background="new 0 0 32 32" xml:space="preserve">
<path opacity="0.1" d="M28.789,10.153c-0.006-0.015-0.014-0.03-0.021-0.046l0.029,0.005C28.797,10.112,28.789,10.153,28.789,10.153z
	 M25.25,22.217l-4.668,0.194l-2.438-4.285l2.523-4.556l4.887,0.162l2.086,4.259C27.64,17.991,25.25,22.217,25.25,22.217z
	 M12.708,18.065l-2.449-4.431l2.56-4.271l5.221-0.08l2.564,4.253l-2.52,4.547L12.708,18.065z M12.816,9.29l-1.93-3.323l2.564-3.128
	l4.475-0.143L20.31,5.65l-2.283,3.56L12.816,9.29z M10.374,22.249l-4.135-0.404l-1.992-3.983l1.738-4.038l4.205-0.161l2.45,4.433
	C12.64,18.096,10.374,22.249,10.374,22.249z M24.811,6.159l0.396-0.787c1.5,1.301,2.717,2.912,3.561,4.735l-1.482-0.236
	C27.286,9.871,24.811,6.159,24.811,6.159z M20.385,5.625l-2.389-2.957c0.059-0.072,0.377-0.459,0.383-0.465
	c-2.141-0.358-4.094-0.175-5.381,0.127c0.009,0.006,0.319,0.398,0.383,0.479l-2.565,3.128L6.991,6.581L6.65,5.538L6.591,5.556
	C9.085,3.308,12.377,1.927,16,1.927c3.498,0,6.689,1.283,9.15,3.395l-0.404,0.804C24.746,6.126,20.385,5.625,20.385,5.625z
	 M4.639,10.222l-1.608,0.379l0.018,0.07l1.58-0.372l1.3,3.472l-1.744,4.053c-0.236-0.023-2.061-0.198-2.061-0.087
	c0.32,2.685,1.339,5.021,3.094,7.206l1.03-3.023l4.128,0.403l2.607,3.956l-1.8,2.931C5.788,27.239,1.927,22.077,1.927,16
	c0-4.146,1.803-7.86,4.655-10.436l0.346,1.062C6.928,6.626,4.639,10.222,4.639,10.222z M17.859,26.435l2.146,3.005l0.061-0.043
	l-2.133-2.983l2.65-3.93l4.664-0.193c0.094,0.211,1.289,2.898,1.281,2.898c1.967-2.303,2.955-4.611,3.312-7.242
	c-0.004,0-1.914,0.008-2.139,0.01l-2.088-4.268l1.684-3.741l1.486,0.237l0.004-0.031c0.816,1.782,1.283,3.758,1.283,5.847
	c0,7.772-6.301,14.073-14.072,14.073c-1.669,0-3.262-0.306-4.747-0.839l1.797-2.925L17.859,26.435z M11.234,29.267l-0.062-0.038
	l0.012-0.02c0.023,0.009,0.047,0.017,0.07,0.025C11.254,29.234,11.234,29.267,11.234,29.267z M6.581,5.56l0.011-0.004
	C6.588,5.559,6.585,5.562,6.583,5.564C6.583,5.564,6.581,5.56,6.581,5.56z M25.164,5.295l0.064,0.032l-0.021,0.045
	c-0.02-0.017-0.037-0.034-0.057-0.051L25.164,5.295z"/>
</svg>
