<?xml version="1.0" encoding="utf-8"?>
<!-- Generator: Adobe Illustrator 17.0.0, SVG Export Plug-In . SVG Version: 6.00 Build 0)  -->
<!DOCTYPE svg PUBLIC "-//W3C//DTD SVG 1.1//EN" "http://www.w3.org/Graphics/SVG/1.1/DTD/svg11.dtd">
<svg version="1.1"
	 id="perl-onion" xmlns:dc="http://purl.org/dc/elements/1.1/" xmlns:cc="http://creativecommons.org/ns#" xmlns:rdf="http://www.w3.org/1999/02/22-rdf-syntax-ns#" xmlns:svg="http://www.w3.org/2000/svg" xmlns:sodipodi="http://sodipodi.sourceforge.net/DTD/sodipodi-0.dtd" xmlns:inkscape="http://www.inkscape.org/namespaces/inkscape" sodipodi:docname="perl-onion.svg" inkscape:version="0.48.2 r9819"
	 xmlns="http://www.w3.org/2000/svg" xmlns:xlink="http://www.w3.org/1999/xlink" x="0px" y="0px" width="192px" height="192px"
	 viewBox="0 0 192 192" enable-background="new 0 0 192 192" xml:space="preserve">
<sodipodi:namedview  inkscape:cy="140.00359" inkscape:cx="128" inkscape:zoom="3.0234375" showgrid="false" guidetolerance="10" gridtolerance="10" pagecolor="#000000" borderopacity="1" bordercolor="#666666" objecttolerance="10" id="namedview5" inkscape:current-layer="perl-onion" inkscape:window-maximized="1" inkscape:window-y="-8" inkscape:window-x="-8" inkscape:pageopacity="1" inkscape:window-height="1061" inkscape:window-width="1920" inkscape:pageshadow="2">
	</sodipodi:namedview>
<path id="path3" inkscape:connector-curvature="0" opacity="0.1" d="M95.817,175.896c-0.287-0.092-0.668-0.357-0.848-0.591
	c-0.315-0.409-0.329-0.621-0.383-5.947c-0.062-6.099-0.045-6.219,0.909-6.694c0.763-0.38,1.374-0.292,1.972,0.283l0.531,0.511v5.502
	c0,5.788-0.039,6.152-0.72,6.711C96.854,176.018,96.412,176.086,95.817,175.896L95.817,175.896z M83.086,173.183
	c-0.796-0.766-0.411-1.68,1.055-2.504c1.152-0.648,2.015-1.395,2.367-2.051c0.249-0.463,0.645-1.773,0.792-2.62
	c0.11-0.636,0.737-1.429,1.288-1.631c0.528-0.193,1.372,0.181,1.674,0.744c0.56,1.043,0.054,3.508-1.062,5.176
	C87.554,172.754,84.257,174.311,83.086,173.183L83.086,173.183z M106.598,173.171c-2.636-1.181-4.466-3.689-4.658-6.387
	c-0.096-1.349,0.16-1.977,0.956-2.343c0.469-0.215,0.557-0.215,1.006,0.009c0.683,0.34,0.959,0.808,1.296,2.201
	c0.513,2.119,1.075,2.889,2.842,3.891c1.308,0.742,1.781,1.336,1.604,2.013C109.368,173.617,108.144,173.864,106.598,173.171
	L106.598,173.171z M76.773,162.338c-5.462-1.362-12.231-4.051-17.453-6.935c-14.956-8.258-24.208-20.217-26.697-34.507
	c-0.528-3.029-0.69-5.542-0.599-9.286c0.093-3.847,0.293-5.36,1.14-8.65c2.549-9.896,8.749-18.302,20.104-27.258
	c2.409-1.9,6.312-4.717,11.564-8.347c8.633-5.966,11.671-8.284,14.754-11.256c3.176-3.062,4.5-4.902,6.084-8.453
	c1.924-4.313,2.166-7.285,1.536-18.828c-0.1-1.824-0.137-3.485-0.083-3.692c0.193-0.739,1.445-0.866,1.742-0.176
	c0.218,0.505,0.7,7.439,0.803,11.54c0.188,7.485-0.384,10.658-2.752,15.27c-2.348,4.572-4.727,7.297-15.868,18.167
	c-11.137,10.867-15.16,15.318-19.332,21.387c-7.174,10.436-9.378,19.219-7.559,30.116c2.142,12.831,10.547,24.006,25.043,33.297
	c2.247,1.44,5.527,3.327,7.925,4.559c0.964,0.495,1.91,1.072,2.103,1.283c0.67,0.731,0.307,1.824-0.682,2.053
	C78.367,162.664,77.568,162.536,76.773,162.338z M114.148,162.535c-0.259-0.113-0.926-0.59-1.483-1.059
	c-3.304-2.788-7.78-4.839-12.286-5.629c-2.422-0.425-2.951-0.725-4.032-2.29c-0.824-1.193-1.296-2.239-2.542-5.638
	c-2.396-6.537-4.28-13.529-5.095-18.903c-0.786-5.184-1.171-13.063-0.877-17.928c0.408-6.745,1.2-10.678,4.37-21.726
	c4.182-14.574,5.66-21.842,6.49-31.919c0.92-11.165,0.61-19.183-1.032-26.707c-0.37-1.695-0.429-2.195-0.282-2.366
	c0.556-0.644,0.949-0.042,1.477,2.261c0.467,2.038,0.983,3.273,1.474,3.526c0.183,0.095,0.591,0.151,0.906,0.126
	c0.556-0.045,1.048-0.497,1.684-1.547c0.206-0.341,0.853-0.177,0.853,0.216c0,0.15-0.182,0.737-0.405,1.304
	c-1.41,3.587-1.911,10.258-1.014,13.499c0.815,2.947,2.864,5.963,6.124,9.016c3.096,2.9,6.477,5.358,12.918,9.395
	c11.775,7.38,14.485,9.165,18.431,12.141c5.034,3.797,9.121,7.68,12.162,11.555c3.364,4.288,5.954,9.587,7.1,14.529
	c1.128,4.863,1.213,10.874,0.235,16.552c-1.716,9.956-6.703,18.911-14.528,26.09c-6.986,6.41-16.414,11.673-26.623,14.864
	C115.603,162.7,114.812,162.825,114.148,162.535L114.148,162.535z M124.509,155.074c3.159-1.438,8.233-5.514,11.979-9.623
	c7.32-8.029,11.663-16.462,13.104-25.448c0.362-2.258,0.365-7.276,0.006-9.838c-1.606-11.46-7.848-21.074-19.991-30.79
	c-2.527-2.022-5.949-4.491-11.554-8.337c-2.747-1.885-5.732-3.983-6.633-4.662c-2.945-2.219-4.728-4.254-6.555-7.48
	c-0.75-1.324-1.191-1.622-1.816-1.229c-0.476,0.3-0.47,0.708,0.032,2.148c1.217,3.489,3.399,6.234,7.696,9.684
	c5.69,4.568,11.228,9.692,14.622,13.53c7.479,8.455,11.974,16.717,13.498,24.807c1.319,7.004,0.139,17.561-2.833,25.333
	c-2.52,6.591-6.342,12.383-12.076,18.301c-1.935,1.997-2.266,2.45-2.266,3.106C121.721,155.633,122.842,155.833,124.509,155.074
	L124.509,155.074z M86.303,156.795c-0.892-0.49-4.946-3.428-6.956-5.041c-2.2-1.765-6.471-5.904-8.167-7.917
	c-6.484-7.692-10.011-15.685-10.949-24.811c-0.262-2.544-0.225-7.82,0.071-10.14c0.669-5.244,2.448-10.193,5.407-15.041
	c2.101-3.442,4.492-6.572,9.978-13.058c6.536-7.728,9.037-11.116,11.392-15.435c3.357-6.154,4.889-12.011,5.469-20.902
	c0.201-3.079,0.105-14.418-0.164-19.376c-0.081-1.487-0.196-4.028-0.256-5.646l-0.109-2.942l0.37-0.25
	c0.478-0.322,0.806-0.315,1.242,0.025c0.402,0.313,0.423,0.498,0.843,7.386c0.671,11.005,0.966,22.042,0.708,26.511
	c-0.453,7.861-1.933,13.933-4.94,20.272C89.046,72.954,87.428,75.719,84,81.1c-3.86,6.059-4.99,7.938-6.396,10.639
	c-3.757,7.218-5.349,13.248-5.618,21.279c-0.288,8.595,1.56,16.33,5.891,24.656c1.94,3.731,4.548,7.804,8.638,13.491
	c1.275,1.774,2.414,3.444,2.531,3.713c0.344,0.792,0.268,1.367-0.244,1.861C88.201,157.318,87.29,157.338,86.303,156.795
	L86.303,156.795z"/>
</svg>
