<?xml version="1.0" encoding="utf-8"?>
<!-- Generator: Adobe Illustrator 17.1.0, SVG Export Plug-In . SVG Version: 6.00 Build 0)  -->
<!DOCTYPE svg PUBLIC "-//W3C//DTD SVG 1.1//EN" "http://www.w3.org/Graphics/SVG/1.1/DTD/svg11.dtd">
<svg version="1.1" id="Layer_1" xmlns="http://www.w3.org/2000/svg" xmlns:xlink="http://www.w3.org/1999/xlink" xmlns:sodipodi="http://sodipodi.sourceforge.net/DTD/sodipodi-0.dtd" xmlns:inkscape="http://www.inkscape.org/namespaces/inkscape" x="0px" y="0px"
	 viewBox="0 0 640 480" enable-background="new 0 0 640 480" xml:space="preserve">
<path id="path3876_1_" sodipodi:nodetypes="cccszzccccszcccszszzzzzzzczzzccccccccccczcczczzzccccccccccccccccccccccccccczczzzaaaaaacsczzzzzzccsczcccczzzcccccccscsc" inkscape:connector-curvature="0" opacity="0.1" fill="none" stroke="#000000" stroke-width="25" d="
	M68.691,232.487c27.471,6.523,39.2-33.64,72.309-21.618c36.583,13.283,6.613,59.314,29.264,81.462
	c12.324,12.051,76.76,26.362,65.959-9.499c-5.568-18.484-15.529-81.41,22.72-68.215c13.148,4.536,17.837,19.904,28.466,28.024
	c16.451,12.569,37.378,12.315,56.965,10.24c30.089-3.189,69.633,11.64,97.302-0.411c31.243-13.608,34.355-67.879,68.413-67.834
	c5.17,0.007,32.978,4.798,36.318,1.441c8.739-8.739,39.162-20.345,51.063-19.857"/>
</svg>
